<svg width="112" height="78" viewBox="0 0 112 78" fill="none" xmlns="http://www.w3.org/2000/svg">
<g clip-path="url(#clip0_logo)">
<path d="M54.9607 33.5282C58.0879 33.1122 60.9659 35.2543 61.3837 38.3081C61.801 41.3619 59.5988 44.1661 56.4698 44.5653C53.3528 44.9629 50.4941 42.8232 50.0781 39.7813C49.6623 36.7395 51.8461 33.9426 54.9607 33.5282Z" fill="#FE2E00"/>
<path d="M84.1804 30.1275C85.0267 30.0144 85.8091 30.5871 85.9345 31.412C86.0606 32.2369 85.483 33.0072 84.6396 33.1398C84.0851 33.2269 83.5258 33.0163 83.1743 32.5883C82.8233 32.1604 82.7351 31.5811 82.9429 31.0718C83.1512 30.5625 83.6241 30.2019 84.1804 30.1275Z" fill="white"/>
<path d="M76.7022 33.822C77.5545 33.7834 78.2806 34.4211 78.3309 35.2528C78.3812 36.0845 77.7379 36.8013 76.8863 36.8614C76.3258 36.9009 75.7873 36.6429 75.476 36.1862C75.1647 35.7294 75.1292 35.1444 75.3831 34.655C75.637 34.1656 76.1406 33.8473 76.7022 33.822Z" fill="white"/>
<path d="M84.2624 33.8256C85.1093 33.757 85.8567 34.3628 85.9432 35.1881C86.0296 36.0134 85.4229 36.7542 84.5796 36.8543C84.0191 36.9206 83.4664 36.6865 83.1332 36.2421C82.8 35.7975 82.7384 35.212 82.9728 34.7108C83.2071 34.2097 83.7001 33.8712 84.2624 33.8256Z" fill="white"/>
<path d="M80.4846 33.8236C81.335 33.7693 82.0724 34.3909 82.1411 35.2199C82.2097 36.0489 81.5848 36.7783 80.7367 36.8583C80.1762 36.9111 79.6306 36.6651 79.308 36.2145C78.9861 35.764 78.9375 35.1788 79.1808 34.6835C79.4246 34.1881 79.9229 33.8595 80.4846 33.8236Z" fill="white"/>
<path d="M26.8695 30.1278C27.7237 30.0125 28.5117 30.596 28.6282 31.4301C28.7447 32.2643 28.1456 33.0325 27.291 33.1447C26.4385 33.2567 25.6542 32.6736 25.5379 31.8416C25.4217 31.0096 26.0175 30.2428 26.8695 30.1278Z" fill="white"/>
<path d="M26.7523 44.9763C27.5835 44.8003 28.4059 45.3069 28.6008 46.1152C28.7958 46.9234 28.2914 47.7352 27.467 47.9397C26.9207 48.0752 26.342 47.9124 25.9534 47.5138C25.5648 47.1152 25.4267 46.5428 25.5923 46.0168C25.7579 45.4908 26.2014 45.093 26.7523 44.9763Z" fill="white"/>
<path d="M84.0577 44.9779C84.8933 44.7968 85.7225 45.3074 85.9148 46.1216C86.1077 46.9358 85.5917 47.7494 84.7596 47.9445C83.9168 48.1419 83.0711 47.631 82.8764 46.8067C82.6811 45.9824 83.212 45.1611 84.0577 44.9779Z" fill="white"/>
<path d="M26.8186 48.6705C27.3744 48.5772 27.9385 48.784 28.2939 49.2115C28.6492 49.6389 28.7405 50.2204 28.5326 50.7322C28.3247 51.2439 27.8499 51.6062 27.2911 51.6796C26.4486 51.7904 25.6704 51.2219 25.5416 50.4015C25.4129 49.5812 25.9808 48.8112 26.8186 48.6705Z" fill="white"/>
<path d="M38.2951 15.2255C39.1427 15.0591 39.9671 15.5977 40.1329 16.426C40.2986 17.2543 39.7424 18.0562 38.8931 18.2135C38.0502 18.3695 37.2367 17.8317 37.0722 17.0098C36.9077 16.1878 37.4541 15.3906 38.2951 15.2255Z" fill="white"/>
<path d="M76.5983 56.0723C77.4547 55.9775 78.2276 56.5791 78.3235 57.4154C78.4194 58.2519 77.8021 59.0053 76.9457 59.0978C76.0905 59.1902 75.3206 58.5893 75.2247 57.7544C75.1288 56.9198 75.7437 56.167 76.5983 56.0723Z" fill="white"/>
</g>
<defs>
<clipPath id="clip0_logo">
<rect width="112" height="78" fill="white"/>
</clipPath>
</defs>
</svg>
