<svg width="112" height="78" viewBox="0 0 112 78" fill="none" xmlns="http://www.w3.org/2000/svg">
<g clip-path="url(#clip0_2946_3845)">
<path d="M54.9607 33.5282C58.0879 33.1122 60.9659 35.2543 61.3837 38.3081C61.801 41.3619 59.5988 44.1661 56.4698 44.5653C53.3528 44.9629 50.4941 42.8232 50.0781 39.7813C49.6623 36.7395 51.8461 33.9426 54.9607 33.5282Z" fill="#FE2E00"/>
<path d="M84.1804 30.1275C85.0267 30.0144 85.8091 30.5871 85.9345 31.412C86.0606 32.2369 85.483 33.0072 84.6396 33.1398C84.0851 33.2269 83.5258 33.0163 83.1743 32.5883C82.8233 32.1604 82.7351 31.5811 82.9429 31.0718C83.1512 30.5625 83.6241 30.2019 84.1804 30.1275Z" fill="white"/>
<path d="M76.7022 33.822C77.5545 33.7834 78.2806 34.4211 78.3309 35.2528C78.3812 36.0845 77.7379 36.8013 76.8863 36.8614C76.3258 36.9009 75.7873 36.6429 75.476 36.1862C75.1647 35.7294 75.1292 35.1444 75.3831 34.655C75.637 34.1656 76.1406 33.8473 76.7022 33.822Z" fill="white"/>
<path d="M84.2624 33.8256C85.1093 33.757 85.8567 34.3628 85.9432 35.1881C86.0296 36.0134 85.4229 36.7542 84.5796 36.8543C84.0191 36.9206 83.4664 36.6865 83.1332 36.2421C82.8 35.7975 82.7384 35.212 82.9728 34.7108C83.2071 34.2097 83.7001 33.8712 84.2624 33.8256Z" fill="white"/>
<path d="M80.4846 33.8236C81.335 33.7693 82.0724 34.3909 82.1411 35.2199C82.2097 36.0489 81.5848 36.7783 80.7367 36.8583C80.1762 36.9111 79.6306 36.6651 79.308 36.2145C78.9861 35.764 78.9375 35.1788 79.1808 34.6835C79.4246 34.1881 79.9229 33.8595 80.4846 33.8236Z" fill="white"/>
<path d="M26.8695 30.1278C27.7237 30.0125 28.5117 30.596 28.6282 31.4301C28.7447 32.2643 28.1456 33.0325 27.291 33.1447C26.4385 33.2567 25.6542 32.6736 25.5379 31.8416C25.4217 31.0096 26.0175 30.2428 26.8695 30.1278Z" fill="white"/>
<path d="M26.7523 44.9763C27.5835 44.8003 28.4059 45.3069 28.6008 46.1152C28.7958 46.9234 28.2914 47.7352 27.467 47.9397C26.9207 48.0752 26.342 47.9124 25.9534 47.5138C25.5648 47.1152 25.4267 46.5428 25.5923 46.0168C25.7579 45.4908 26.2014 45.093 26.7523 44.9763Z" fill="white"/>
<path d="M84.0577 44.9779C84.8933 44.7968 85.7225 45.3074 85.9148 46.1216C86.1077 46.9358 85.5917 47.7494 84.7596 47.9445C83.9168 48.1419 83.0711 47.631 82.8764 46.8067C82.6811 45.9824 83.212 45.1611 84.0577 44.9779Z" fill="white"/>
<path d="M26.8186 48.6705C27.3744 48.5772 27.9385 48.784 28.2939 49.2115C28.6492 49.6389 28.7405 50.2204 28.5326 50.7322C28.3247 51.2439 27.8499 51.6062 27.2911 51.6796C26.4486 51.7904 25.6704 51.2219 25.5416 50.4015C25.4129 49.5812 25.9808 48.8112 26.8186 48.6705Z" fill="white"/>
<path d="M38.2951 15.2255C39.1427 15.0591 39.9671 15.5977 40.1329 16.426C40.2986 17.2543 39.7424 18.0562 38.8931 18.2135C38.0502 18.3695 37.2367 17.8317 37.0722 17.0098C36.9077 16.1878 37.4541 15.3906 38.2951 15.2255Z" fill="white"/>
<path d="M76.5983 56.0723C77.4547 55.9775 78.2276 56.5791 78.3235 57.4154C78.4194 58.2519 77.8021 59.0053 76.9457 59.0978C76.0905 59.1902 75.3206 58.5893 75.2247 57.7544C75.1288 56.9198 75.7437 56.167 76.5983 56.0723Z" fill="white"/>
<path d="M84.1408 48.6685C84.9912 48.5333 85.7926 49.0968 85.9305 49.927C86.069 50.7572 85.4907 51.5394 84.6403 51.6736C83.7904 51.8077 82.9903 51.2442 82.8524 50.4147C82.7145 49.5852 83.2915 48.8036 84.1408 48.6685Z" fill="white"/>
<path d="M34.3138 41.2803C35.1475 41.0721 35.9964 41.5627 36.2103 42.3765C36.4243 43.1902 35.9225 44.0193 35.0892 44.2289C34.2548 44.4389 33.4042 43.9482 33.19 43.1334C32.9757 42.3186 33.4791 41.4887 34.3138 41.2803Z" fill="white"/>
<path d="M84.1402 26.4263C84.9907 26.2909 85.792 26.8544 85.9305 27.6846C86.0684 28.5148 85.4908 29.297 84.6403 29.4313C83.7904 29.5654 82.9903 29.0021 82.8524 28.1727C82.7145 27.3434 83.2909 26.5617 84.1402 26.4263Z" fill="white"/>
<path d="M84.0144 41.2789C84.8477 41.0739 85.694 41.5661 85.9059 42.3792C86.1183 43.1923 85.6165 44.0196 84.7844 44.2289C83.9487 44.439 83.0971 43.9468 82.8846 43.1306C82.6716 42.3145 83.1776 41.4846 84.0144 41.2789Z" fill="white"/>
<path d="M30.5159 41.2776C31.349 41.0757 32.1926 41.5693 32.4031 42.3818C32.6135 43.1942 32.1117 44.0199 31.2804 44.2289C30.4439 44.4392 29.5917 43.9456 29.38 43.1281C29.1682 42.3106 29.6776 41.4808 30.5159 41.2776Z" fill="white"/>
<path d="M26.7 41.279C27.2467 41.1439 27.8256 41.3075 28.2137 41.7069C28.6019 42.1063 28.7389 42.6792 28.5719 43.2051C28.4049 43.7309 27.96 44.1278 27.4085 44.2429C26.5777 44.4162 25.7577 43.9081 25.5646 43.1004C25.3715 42.2926 25.8764 41.4827 26.7 41.279Z" fill="white"/>
<path d="M26.8325 26.426C27.3871 26.338 27.9473 26.5482 28.2989 26.9762C28.6504 27.4042 28.7387 27.9838 28.5302 28.4931C28.3216 29.0026 27.8483 29.3629 27.2915 29.4365C26.4463 29.548 25.6662 28.9758 25.5406 28.1523C25.415 27.3288 25.9907 26.5596 26.8325 26.426Z" fill="white"/>
<path d="M49.7155 15.2257C50.5633 15.0586 51.3884 15.5972 51.5541 16.4259C51.7199 17.2546 51.1629 18.0567 50.313 18.2132C49.4708 18.3682 48.6583 17.8305 48.494 17.0092C48.3298 16.188 48.8754 15.3914 49.7155 15.2257Z" fill="white"/>
<path d="M41.9425 41.2793C42.7753 41.0781 43.6182 41.5716 43.8284 42.3836C44.0388 43.1956 43.5375 44.0209 42.7068 44.2303C41.8702 44.4411 41.0176 43.9475 40.8058 43.1297C40.5939 42.312 41.1038 41.482 41.9425 41.2793Z" fill="white"/>
<path d="M26.98 33.8237C27.8415 33.7683 28.585 34.4072 28.6382 35.2485C28.6913 36.0899 28.0338 36.8131 27.1718 36.8615C26.3149 36.9096 25.5793 36.2723 25.5264 35.4358C25.4736 34.5994 26.1234 33.8787 26.98 33.8237Z" fill="white"/>
<path d="M38.134 41.2793C38.9682 41.0778 39.8121 41.5735 40.0205 42.3873C40.229 43.2012 39.7234 44.0263 38.8902 44.2319C38.0541 44.4381 37.2054 43.9424 36.9962 43.1256C36.7869 42.3089 37.2968 41.4815 38.134 41.2793Z" fill="white"/>
<path d="M72.5802 59.883C73.1353 59.7785 73.7052 59.9761 74.0686 60.3984C74.4326 60.8208 74.5332 61.4026 74.332 61.9185C74.1307 62.4345 73.6597 62.8037 73.0998 62.8829C72.2618 63.0025 71.48 62.4461 71.3385 61.6308C71.1971 60.8156 71.7487 60.0396 72.5802 59.883Z" fill="white"/>
<path d="M42.0606 11.5294C42.9038 11.3398 43.7438 11.8569 43.9319 12.6814C44.1201 13.5059 43.5843 14.3222 42.7384 14.4999C41.9012 14.6758 41.0754 14.1592 40.8892 13.3431C40.7029 12.527 41.2261 11.7171 42.0606 11.5294Z" fill="white"/>
<path d="M34.3416 19.0341C35.1824 18.8382 36.0259 19.3476 36.2216 20.1696C36.4174 20.9915 35.8906 21.812 35.0475 21.9983C34.2115 22.183 33.3795 21.6739 33.1854 20.8587C32.9912 20.0436 33.5078 19.2284 34.3416 19.0341Z" fill="white"/>
<path d="M69.0618 33.8251C69.9093 33.7748 70.642 34.3964 70.7101 35.2228C70.7775 36.0492 70.1549 36.7763 69.3098 36.8581C68.7488 36.9124 68.2013 36.6664 67.8782 36.2151C67.5556 35.7638 67.5077 35.1773 67.7527 34.6817C67.9983 34.186 68.499 33.8584 69.0618 33.8251Z" fill="white"/>
<path d="M49.7676 48.67C50.6222 48.5289 51.4306 49.0956 51.5667 49.9313C51.7029 50.767 51.1144 51.5505 50.2572 51.6752C49.4117 51.7981 48.6226 51.2333 48.4883 50.4092C48.3541 49.5851 48.9248 48.8092 49.7676 48.67Z" fill="white"/>
<path d="M80.3878 52.3659C80.9459 52.2961 81.4992 52.5251 81.8354 52.9652C82.1716 53.4053 82.239 53.9882 82.0118 54.4903C81.7839 54.9925 81.2974 55.3361 80.7376 55.3894C79.8901 55.4701 79.1331 54.8717 79.0373 54.0456C78.942 53.2195 79.5433 52.4716 80.3878 52.3659Z" fill="white"/>
<path d="M72.877 33.8249C73.7286 33.7761 74.4619 34.4044 74.5228 35.2349C74.5838 36.0654 73.95 36.7895 73.1001 36.8598C72.5408 36.9061 71.9987 36.6549 71.6821 36.2023C71.3649 35.7497 71.3223 35.1656 71.5696 34.6735C71.817 34.1812 72.3165 33.8571 72.877 33.8249Z" fill="white"/>
<path d="M68.7777 63.5892C69.6199 63.4338 70.4324 63.9723 70.5964 64.7933C70.7597 65.6149 70.2129 66.4111 69.3725 66.5758C68.5256 66.7416 67.7018 66.2025 67.5366 65.3746C67.3721 64.5466 67.9284 63.7458 68.7777 63.5892Z" fill="white"/>
<path d="M30.5969 22.7267C31.4283 22.5711 32.2349 23.0918 32.4136 23.8996C32.5923 24.7074 32.0778 25.5067 31.2548 25.6999C30.7051 25.829 30.1269 25.6573 29.7439 25.2512C29.361 24.8451 29.2334 24.2684 29.4105 23.7442C29.5876 23.2201 30.0417 22.8306 30.5969 22.7267Z" fill="white"/>
<path d="M57.4607 56.0728C58.3023 55.9775 59.0676 56.5558 59.1836 57.375C59.3001 58.1944 58.7249 58.9541 57.8886 59.0853C57.3305 59.1737 56.7679 58.9599 56.4177 58.5272C56.0674 58.0944 55.9845 57.5103 56.201 57.0009C56.4175 56.4915 56.8995 56.1364 57.4607 56.0728Z" fill="white"/>
<path d="M61.1449 59.8877C61.9812 59.7231 62.7979 60.2459 62.9766 61.0606C63.1548 61.8753 62.6292 62.6784 61.7971 62.8627C61.2497 62.9834 60.678 62.8078 60.3004 62.4028C59.9228 61.9978 59.7974 61.4258 59.9719 60.9052C60.1471 60.3846 60.5951 59.9958 61.1449 59.8877Z" fill="white"/>
<path d="M45.873 11.5282C46.4202 11.4066 46.9921 11.5818 47.3701 11.9868C47.7481 12.3917 47.8739 12.9638 47.6993 13.4845C47.5248 14.0052 47.0769 14.394 46.5268 14.5024C45.6906 14.6672 44.8742 14.1448 44.6951 13.3305C44.5162 12.5163 45.0412 11.7129 45.873 11.5282Z" fill="white"/>
<path d="M53.4757 19.0336C54.3086 18.8406 55.1449 19.34 55.3483 20.1517C55.5518 20.9635 55.0462 21.7834 54.2161 21.9877C53.3778 22.194 52.5278 21.6944 52.3224 20.8746C52.1169 20.0548 52.6345 19.2285 53.4757 19.0336Z" fill="white"/>
<path d="M61.2069 26.4255C62.0603 26.2925 62.8616 26.8633 62.9918 27.6972C63.1226 28.5311 62.5331 29.3095 61.6779 29.4316C60.8305 29.5526 60.0421 28.9832 59.9125 28.1568C59.7835 27.3305 60.3617 26.5572 61.2069 26.4255Z" fill="white"/>
<path d="M65.0448 30.1281C65.8876 30.0132 66.6688 30.5794 66.7996 31.4001C66.9304 32.2207 66.3622 32.9919 65.5242 33.1324C64.9696 33.2252 64.4074 33.0193 64.0529 32.5936C63.6978 32.1679 63.6055 31.5886 63.8109 31.0778C64.0168 30.567 64.4885 30.204 65.0448 30.1281Z" fill="white"/>
<path d="M64.9804 63.5875C65.8291 63.4362 66.6422 63.9868 66.7938 64.8165C66.9453 65.6456 66.3765 66.4371 65.5267 66.581C64.6821 66.7237 63.8778 66.1731 63.7275 65.3498C63.5772 64.5259 64.1371 63.7383 64.9804 63.5875Z" fill="white"/>
<path d="M45.8763 44.9803C46.4229 44.8605 46.9931 45.0366 47.3697 45.4414C47.7463 45.8462 47.8711 46.4173 47.6965 46.9369C47.522 47.4565 47.0749 47.8445 46.526 47.953C45.6895 48.1181 44.8728 47.5951 44.6947 46.7804C44.5167 45.9656 45.0437 45.1628 45.8763 44.9803Z" fill="white"/>
<path d="M57.3486 22.7261C58.1783 22.5725 58.982 23.0928 59.1602 23.8988C59.3383 24.7047 58.8258 25.5024 58.0049 25.6963C57.4551 25.8262 56.8768 25.6548 56.4938 25.2488C56.1107 24.8428 55.9832 24.266 56.1609 23.7419C56.3384 23.2178 56.7931 22.829 57.3486 22.7261Z" fill="white"/>
<path d="M53.6299 52.3686C54.1876 52.2966 54.7419 52.524 55.0794 52.9635C55.4169 53.403 55.4853 53.986 55.2582 54.4886C55.031 54.9911 54.5438 55.3349 53.9838 55.3877C53.1387 55.4675 52.3841 54.8714 52.2876 54.0479C52.191 53.2245 52.7882 52.4774 53.6299 52.3686Z" fill="white"/>
<path d="M38.2481 45.1512C38.9865 45.0126 39.7008 45.4832 39.8452 46.2037C39.9897 46.9241 39.5101 47.623 38.7726 47.7665C38.0315 47.9107 37.3115 47.4397 37.1663 46.7157C37.0211 45.9918 37.506 45.2905 38.2481 45.1512Z" fill="white"/>
<path d="M42.0639 45.1518C42.8053 45.0167 43.5184 45.4944 43.6559 46.2184C43.7935 46.9425 43.3034 47.6381 42.5616 47.7716C41.821 47.905 41.1097 47.4273 40.9724 46.7044C40.835 45.9815 41.3235 45.2866 42.0639 45.1518Z" fill="white"/>
<path d="M72.8697 30.3061C73.6254 30.2537 74.2806 30.8128 74.3285 31.5512C74.3758 32.2896 73.7982 32.9246 73.0413 32.9652C72.2932 33.0054 71.6517 32.449 71.6043 31.7188C71.557 30.9886 72.1222 30.3579 72.8697 30.3061Z" fill="white"/>
<path d="M69.0593 30.3046C69.8009 30.2502 70.4501 30.7856 70.5199 31.5083C70.5892 32.2311 70.053 32.8751 69.3138 32.9564C68.8238 33.0104 68.3414 32.8016 68.0538 32.4104C67.7656 32.0192 67.7159 31.5067 67.9248 31.07C68.1331 30.6333 68.5669 30.3406 69.0593 30.3046Z" fill="white"/>
<path d="M46.0309 15.3992C46.776 15.2997 47.463 15.8077 47.5667 16.5348C47.6704 17.2619 47.1518 17.9339 46.4073 18.0369C45.6601 18.1404 44.9689 17.6319 44.8648 16.9023C44.7606 16.1725 45.2832 15.499 46.0309 15.3992Z" fill="white"/>
<path d="M34.4371 45.1541C35.1715 45.0132 35.885 45.4764 36.0361 46.1921C36.1871 46.9078 35.7191 47.6085 34.9875 47.7624C34.2463 47.9184 33.5172 47.4543 33.3643 46.7294C33.2113 46.0045 33.6932 45.2969 34.4371 45.1541Z" fill="white"/>
<path d="M76.682 30.3058C77.4183 30.2572 78.0604 30.7887 78.1314 31.5055C78.203 32.2222 77.6775 32.8644 76.946 32.9551C76.453 33.0161 75.9653 32.8107 75.6724 32.4189C75.3794 32.0271 75.328 31.5108 75.538 31.0713C75.7481 30.6318 76.1867 30.3386 76.682 30.3058Z" fill="white"/>
<path d="M42.2111 15.4007C42.9532 15.2956 43.6429 15.795 43.7553 16.5187C43.8677 17.2424 43.3605 17.9189 42.6199 18.0333C41.8726 18.1487 41.172 17.6481 41.0586 16.9178C40.9452 16.1875 41.4624 15.5067 42.2111 15.4007Z" fill="white"/>
<path d="M80.4912 30.306C81.2315 30.2557 81.8772 30.7927 81.9441 31.5143C82.011 32.2359 81.4742 32.8771 80.7362 32.957C80.2455 33.0102 79.7638 32.8001 79.4768 32.4079C79.1897 32.0157 79.1424 31.5026 79.3525 31.0665C79.5632 30.6304 79.9988 30.3395 80.4912 30.306Z" fill="white"/>
<path d="M68.9127 60.0579C69.6442 59.9747 70.3112 60.4733 70.4189 61.1846C70.5272 61.8958 70.0372 62.562 69.3128 62.6897C68.8233 62.7758 68.3244 62.5949 68.0114 62.2182C67.6983 61.8409 67.6202 61.3273 67.8078 60.8778C67.9954 60.4283 68.4191 60.1139 68.9127 60.0579Z" fill="white"/>
<path d="M65.1063 60.0572C65.8437 59.9764 66.5118 60.4871 66.6089 61.2053C66.7065 61.9241 66.1964 62.5862 65.4625 62.6954C64.9749 62.7676 64.4848 62.5769 64.1818 62.1968C63.8788 61.8166 63.8102 61.3064 64.0013 60.8627C64.1931 60.4189 64.6156 60.1104 65.1063 60.0572Z" fill="white"/>
<path d="M30.6304 45.1544C31.3721 45.0113 32.0913 45.485 32.2333 46.2099C32.3752 46.9349 31.8857 47.6342 31.1422 47.7683C30.4052 47.9013 29.6965 47.4284 29.5557 46.7097C29.415 45.991 29.8951 45.2962 30.6304 45.1544Z" fill="white"/>
<path d="M34.36 48.9615C35.0447 48.7773 35.7528 49.1693 35.9425 49.8375C36.1322 50.5057 35.7317 51.1976 35.0476 51.3839C34.362 51.5705 33.6513 51.1785 33.4611 50.5089C33.2711 49.8392 33.6737 49.146 34.36 48.9615Z" fill="white"/>
<path d="M80.2378 26.7186C80.9255 26.5309 81.6381 26.9259 81.8257 27.5986C82.0133 28.2714 81.6038 28.9646 80.9137 29.1432C80.2302 29.3201 79.5283 28.9251 79.3424 28.2587C79.1566 27.5923 79.5561 26.9044 80.2378 26.7186Z" fill="white"/>
<path d="M30.5507 48.9612C30.9986 48.8407 31.4783 48.9652 31.8057 49.287C32.1331 49.6088 32.2575 50.0779 32.1311 50.5143C32.0046 50.9508 31.647 51.2869 31.1954 51.3936C30.5124 51.555 29.8229 51.1515 29.6468 50.4872C29.4707 49.8229 29.8731 49.1436 30.5507 48.9612Z" fill="white"/>
<path d="M76.4239 26.72C77.1074 26.5304 77.8194 26.9181 78.0129 27.5858C78.2064 28.2535 77.8087 28.9479 77.1252 29.1366C76.4416 29.3252 75.7308 28.9374 75.5373 28.2704C75.3438 27.6034 75.7403 26.9094 76.4239 26.72Z" fill="white"/>
<path d="M38.1727 48.9612C38.8615 48.7766 39.5723 49.175 39.7563 49.8487C39.9402 50.5224 39.5268 51.2135 38.8354 51.3881C38.1512 51.5609 37.4523 51.1624 37.2703 50.4957C37.0882 49.829 37.4912 49.1438 38.1727 48.9612Z" fill="white"/>
<path d="M41.9842 48.9589C42.431 48.8419 42.9078 48.9681 43.2328 49.2896C43.5578 49.611 43.6808 50.0782 43.5551 50.5128C43.4293 50.9474 43.0741 51.2827 42.6249 51.3906C41.9403 51.5551 41.2477 51.1508 41.0721 50.4843C40.8965 49.8177 41.3033 49.1374 41.9842 48.9589Z" fill="white"/>
<path d="M68.8108 26.7187C69.4973 26.531 70.2093 26.9247 70.3975 27.5961C70.5857 28.2675 70.1785 28.9603 69.4896 29.1403C68.8067 29.3188 68.1042 28.925 67.9171 28.259C67.7301 27.593 68.1296 26.9048 68.8108 26.7187Z" fill="white"/>
<path d="M49.9195 19.264C50.6255 19.2079 51.2448 19.7201 51.3043 20.4092C51.3638 21.0982 50.841 21.7044 50.1354 21.7645C49.4268 21.825 48.8027 21.312 48.7429 20.6199C48.6831 19.9279 49.2105 19.3202 49.9195 19.264Z" fill="white"/>
<path d="M38.5227 19.2622C39.2245 19.2201 39.8306 19.7365 39.8829 20.4209C39.9353 21.1054 39.4145 21.7039 38.7141 21.7641C38.2528 21.8037 37.8052 21.5979 37.5427 21.2254C37.2802 20.8528 37.2434 20.3712 37.4463 19.9647C37.6492 19.5583 38.0605 19.2898 38.5227 19.2622Z" fill="white"/>
<path d="M45.8776 48.9631C46.3241 48.843 46.8021 48.9667 47.1291 49.287C47.456 49.6072 47.5811 50.0743 47.4566 50.5098C47.3321 50.9452 46.9772 51.2816 46.5277 51.3903C45.8452 51.5552 45.1535 51.154 44.9757 50.4899C44.7978 49.8258 45.1997 49.1454 45.8776 48.9631Z" fill="white"/>
<path d="M72.601 56.3564C73.2916 56.2114 73.9728 56.6381 74.1255 57.3116C74.2788 57.9851 73.8456 58.6524 73.1567 58.8061C72.4619 58.961 71.7706 58.5334 71.6167 57.854C71.4623 57.1748 71.9038 56.5027 72.601 56.3564Z" fill="white"/>
<path d="M64.912 26.7205C65.5991 26.5328 66.3116 26.9282 66.498 27.6008C66.6851 28.2735 66.2738 28.9657 65.5837 29.1422C64.9007 29.3167 64.2018 28.9213 64.0177 28.2565C63.8331 27.5916 64.2326 26.906 64.912 26.7205Z" fill="white"/>
<path d="M72.6262 26.7181C73.079 26.5975 73.5631 26.7273 73.8886 27.0566C74.2147 27.3859 74.3313 27.8625 74.1922 28.2999C74.0531 28.7373 73.6809 29.066 73.2216 29.1575C72.5422 29.2928 71.8752 28.8775 71.7148 28.219C71.5545 27.5605 71.9575 26.8964 72.6262 26.7181Z" fill="white"/>
<path d="M64.959 56.3626C65.6444 56.2032 66.3332 56.6119 66.5037 57.2789C66.6741 57.9456 66.2628 58.6228 65.581 58.7961C65.1342 58.9099 64.659 58.7805 64.3364 58.457C64.0145 58.1334 63.8949 57.6661 64.0234 57.2328C64.1524 56.7996 64.5098 56.4672 64.959 56.3626Z" fill="white"/>
<path d="M61.159 56.3617C61.8514 56.2028 62.5438 56.6235 62.7042 57.2999C62.8646 57.9766 62.4308 58.6515 61.7378 58.8051C61.0477 58.9583 60.3606 58.5382 60.2014 57.8651C60.0416 57.1918 60.4701 56.5196 61.159 56.3617Z" fill="white"/>
<path d="M46.1486 19.2655C46.845 19.2287 47.4443 19.7411 47.4986 20.4198C47.5531 21.0986 47.0429 21.6957 46.3491 21.7652C45.8853 21.8116 45.4321 21.6091 45.1651 21.2359C44.8981 20.8627 44.8592 20.3776 45.0634 19.9683C45.2677 19.5592 45.683 19.2901 46.1486 19.2655Z" fill="white"/>
<path d="M68.7673 56.3636C69.4485 56.2027 70.1362 56.6045 70.3126 57.2665C70.489 57.9285 70.0889 58.6063 69.4142 58.79C68.9668 58.9113 68.4874 58.7883 68.1601 58.467C67.8323 58.1464 67.7074 57.678 67.8334 57.242C67.9595 56.8059 68.3164 56.4701 68.7673 56.3636Z" fill="white"/>
<path d="M42.0113 19.3269C42.6875 19.1095 43.4158 19.471 43.6343 20.1325C43.8528 20.794 43.4781 21.5027 42.7991 21.7119C42.1261 21.9194 41.4078 21.5574 41.1912 20.9016C40.9746 20.2459 41.3409 19.5424 42.0113 19.3269Z" fill="white"/>
<path d="M61.2157 23.0796C61.8631 22.9529 62.4928 23.3636 62.6207 23.9958C62.7485 24.628 62.3254 25.2413 61.6779 25.3641C61.0322 25.4864 60.4078 25.076 60.2806 24.4466C60.1534 23.8171 60.5718 23.2058 61.2157 23.0796Z" fill="white"/>
<path d="M49.7821 23.0819C50.4184 22.951 51.0447 23.342 51.1898 23.9608C51.3349 24.5796 50.9453 25.1978 50.3141 25.3502C49.8959 25.4512 49.4544 25.324 49.1594 25.0175C48.8643 24.7111 48.7617 24.2731 48.8907 23.8719C49.0198 23.4707 49.3606 23.1686 49.7821 23.0819Z" fill="white"/>
<path d="M57.5264 52.7183C58.178 52.6571 58.7586 53.1208 58.8255 53.7567C58.893 54.3925 58.4219 54.9621 57.7709 55.032C57.1139 55.1027 56.5234 54.6374 56.4556 53.9953C56.3878 53.3533 56.8685 52.7801 57.5264 52.7183Z" fill="white"/>
<path d="M38.371 23.08C39.0153 22.9583 39.639 23.3685 39.7656 23.9971C39.8922 24.6256 39.4739 25.2358 38.8304 25.3612C38.1842 25.4872 37.556 25.0768 37.4288 24.4455C37.3017 23.8142 37.724 23.2022 38.371 23.08Z" fill="white"/>
<path d="M61.3758 52.7153C62.0257 52.6745 62.5891 53.1514 62.6394 53.7855C62.6897 54.4196 62.2085 54.9754 61.5593 55.0327C61.132 55.0704 60.7171 54.8808 60.4733 54.5364C60.2289 54.192 60.194 53.746 60.3804 53.3689C60.5674 52.9919 60.9473 52.7422 61.3758 52.7153Z" fill="white"/>
<path d="M53.5981 23.0821C54.237 22.9554 54.8613 23.354 54.9987 23.9761C55.136 24.5982 54.7354 25.2124 54.0998 25.3541C53.6819 25.4472 53.2449 25.3137 52.9558 25.0046C52.6668 24.6955 52.5703 24.2585 52.7032 23.8606C52.8362 23.4627 53.178 23.1653 53.5981 23.0821Z" fill="white"/>
<path d="M65.1527 52.7174C65.8031 52.6617 66.3784 53.1283 66.4411 53.7629C66.5045 54.3976 66.0316 54.9632 65.3824 55.0305C64.7243 55.0986 64.1354 54.6298 64.0721 53.987C64.0081 53.3441 64.4934 52.7738 65.1527 52.7174Z" fill="white"/>
<path d="M49.9169 52.7179C50.568 52.6593 51.1457 53.1246 51.2103 53.7599C51.275 54.3952 50.8025 54.9624 50.1523 55.0301C49.4954 55.0984 48.9071 54.6314 48.8419 53.9897C48.7765 53.3479 49.2591 52.777 49.9169 52.7179Z" fill="white"/>
<path d="M68.9845 52.7176C69.6314 52.6747 70.1948 53.1457 70.2505 53.7767C70.3067 54.4076 69.8344 54.966 69.1893 55.0321C68.7614 55.076 68.3424 54.8908 68.0939 54.5478C67.8447 54.2049 67.8056 53.7576 67.9903 53.378C68.1749 52.9985 68.5549 52.746 68.9845 52.7176Z" fill="white"/>
<path d="M72.7843 52.7188C73.4341 52.6668 74.0058 53.1352 74.0662 53.7692C74.1265 54.4031 73.6525 54.9662 73.0038 55.0319C72.5783 55.075 72.1617 54.8913 71.9125 54.5511C71.6639 54.2108 71.6219 53.7664 71.8018 53.3873C71.9823 53.0082 72.3576 52.7529 72.7843 52.7188Z" fill="white"/>
<path d="M65.0286 23.0823C65.6665 22.9607 66.2862 23.3615 66.4205 23.9824C66.5549 24.6033 66.1536 25.2145 65.5198 25.355C65.1007 25.4478 64.6634 25.3132 64.3752 25.0027C64.0864 24.6922 63.9917 24.254 64.1272 23.8562C64.2627 23.4583 64.6072 23.1626 65.0286 23.0823Z" fill="white"/>
<path d="M46.1062 52.7177C46.7559 52.6604 47.3316 53.1245 47.3969 53.7581C47.4623 54.3918 46.9928 54.9586 46.3446 55.0289C45.9192 55.075 45.5012 54.8946 45.25 54.5563C44.9988 54.218 44.953 53.7741 45.1301 53.3937C45.3073 53.0134 45.68 52.7552 46.1062 52.7177Z" fill="white"/>
<path d="M42.1809 23.0822C42.8177 22.9611 43.4366 23.3604 43.5719 23.9799C43.7073 24.5994 43.3091 25.2105 42.6771 25.3536C42.2582 25.4484 41.8195 25.3152 41.5296 25.005C41.2398 24.6949 41.1439 24.2562 41.2789 23.8576C41.4139 23.4589 41.7588 23.1625 42.1809 23.0822Z" fill="white"/>
<path d="M45.983 23.0827C46.6239 22.9593 47.2468 23.3635 47.3784 23.9882C47.51 24.6129 47.1009 25.2243 46.4621 25.3577C45.816 25.4926 45.1811 25.0877 45.048 24.4559C44.915 23.8241 45.3348 23.2075 45.983 23.0827Z" fill="white"/>
<path d="M80.3501 23.0833C80.9875 22.9589 81.6089 23.3572 81.7456 23.9775C81.8823 24.5979 81.4829 25.2103 80.8496 25.3524C80.4318 25.4462 79.9944 25.313 79.7056 25.0039C79.4162 24.6948 79.3203 24.2576 79.4535 23.8599C79.5873 23.4621 79.9299 23.1654 80.3501 23.0833Z" fill="white"/>
<path d="M30.7789 52.7198C31.4293 52.6613 32.0062 53.126 32.0709 53.7605C32.1356 54.395 31.6637 54.9617 31.0143 55.0294C30.3581 55.0978 29.7705 54.6314 29.7052 53.9904C29.6398 53.3493 30.1218 52.779 30.7789 52.7198Z" fill="white"/>
<path d="M76.5386 23.0838C77.1718 22.9586 77.792 23.3506 77.9341 23.9662C78.0761 24.5818 77.6879 25.1953 77.0605 25.3473C76.6427 25.4485 76.2012 25.321 75.9065 25.014C75.6123 24.7069 75.5111 24.2684 75.6425 23.8678C75.7733 23.4672 76.1166 23.1673 76.5386 23.0838Z" fill="white"/>
<path d="M38.4129 52.7187C39.0606 52.6675 39.6303 53.1336 39.6919 53.7651C39.7535 54.3966 39.2843 54.9593 38.6384 55.0285C38.2123 55.0741 37.7941 54.8922 37.5438 54.5524C37.2936 54.2127 37.2502 53.7677 37.4302 53.3879C37.6102 53.0082 37.9857 52.7524 38.4129 52.7187Z" fill="white"/>
<path d="M42.2236 52.7188C42.8724 52.6666 43.4435 53.1337 43.5044 53.7664C43.5654 54.3991 43.0936 54.962 42.4463 55.0289C42.0208 55.0729 41.604 54.8901 41.3549 54.5505C41.1058 54.2108 41.063 53.7667 41.2428 53.3876C41.4226 53.0086 41.7972 52.7531 42.2236 52.7188Z" fill="white"/>
<path d="M72.7427 23.0814C73.3818 22.962 74.0009 23.3671 74.1305 23.99C74.2601 24.6128 73.8523 25.2215 73.2155 25.3552C72.8628 25.4294 72.4941 25.3427 72.2142 25.1197C71.9342 24.8967 71.7739 24.5616 71.7774 24.2089C71.7833 23.6568 72.1869 23.1851 72.7427 23.0814Z" fill="white"/>
<path d="M34.4844 23.0805C34.8299 23.0171 35.1864 23.1063 35.4581 23.324C35.7298 23.5418 35.8888 23.8659 35.8924 24.209C35.8979 24.7481 35.5224 25.2199 34.986 25.3478C34.5662 25.4479 34.1238 25.3176 33.8306 25.0076C33.5376 24.6975 33.44 24.2565 33.5759 23.856C33.7118 23.4555 34.0597 23.1585 34.4844 23.0805Z" fill="white"/>
<path d="M34.5872 52.7206C35.2357 52.6579 35.8149 53.1169 35.8855 53.7494C35.9561 54.3819 35.4918 54.9519 34.8446 55.0271C34.1883 55.1034 33.5943 54.6422 33.5227 54.0008C33.4511 53.3593 33.9294 52.7841 34.5872 52.7206Z" fill="white"/>
<path d="M68.9286 23.0832C69.5642 22.9593 70.185 23.3563 70.3223 23.9752C70.4596 24.5941 70.0631 25.2062 69.4316 25.3505C69.0138 25.446 68.5752 25.314 68.2852 25.0053C67.9953 24.6966 67.8982 24.2591 68.0314 23.8607C68.1645 23.4624 68.5072 23.1652 68.9286 23.0832Z" fill="white"/>
<path d="M76.6927 52.7196C77.3366 52.6764 77.8983 53.1433 77.9568 53.771C78.0154 54.3986 77.5503 54.9572 76.9087 55.0288C76.4808 55.0765 76.0601 54.8943 75.8085 54.5526C75.5576 54.2108 75.5156 53.7632 75.699 53.3826C75.8825 53.0021 76.263 52.7484 76.6927 52.7196Z" fill="white"/>
<path d="M76.6034 49.1957C77.1556 49.1043 77.6794 49.4669 77.7735 50.0059C77.8676 50.5449 77.4971 51.0566 76.9449 51.1494C76.3922 51.2422 75.8666 50.8796 75.7725 50.3396C75.6778 49.7996 76.0501 49.2873 76.6034 49.1957Z" fill="white"/>
<path d="M72.7401 19.5508C73.2727 19.4311 73.8065 19.7446 73.948 20.2599C74.0894 20.7752 73.787 21.3072 73.265 21.4634C72.9099 21.5694 72.524 21.478 72.2589 21.2248C71.9932 20.9717 71.8908 20.5972 71.9908 20.2484C72.0914 19.8996 72.3785 19.6321 72.7401 19.5508Z" fill="white"/>
<path d="M76.5341 19.5533C77.0804 19.4244 77.6302 19.7537 77.7598 20.2876C77.8894 20.8215 77.5497 21.3566 77.0022 21.4809C76.4584 21.6045 75.9145 21.2754 75.7855 20.7447C75.6564 20.2141 75.9914 19.6815 76.5341 19.5533Z" fill="white"/>
<path d="M80.4218 49.1946C80.9657 49.1082 81.4806 49.4615 81.5818 49.9902C81.683 50.519 81.3338 51.03 80.7947 51.1411C80.4343 51.2154 80.0614 51.0933 79.8194 50.8223C79.5779 50.5512 79.5057 50.1736 79.6306 49.8356C79.756 49.4976 80.0585 49.2523 80.4218 49.1946Z" fill="white"/>
<path d="M61.2164 19.5527C61.7514 19.4278 62.2917 19.7428 62.4326 20.2624C62.5735 20.782 62.2639 21.3164 61.7354 21.4666C61.3815 21.5671 61.0004 21.4725 60.7382 21.2196C60.4766 20.9667 60.376 20.5952 60.4748 20.249C60.5743 19.9028 60.8578 19.6362 61.2164 19.5527Z" fill="white"/>
<path d="M30.7362 26.9495C31.283 26.8662 31.7971 27.2263 31.8915 27.7586C31.9858 28.2909 31.6254 28.7987 31.0817 28.8995C30.7221 28.9662 30.3535 28.8384 30.1175 28.5651C29.8816 28.2918 29.8149 27.9155 29.9431 27.5807C30.0713 27.2459 30.3745 27.0046 30.7362 26.9495Z" fill="white"/>
<path d="M38.1691 56.6527C38.5124 56.5316 38.8959 56.5999 39.1732 56.8317C39.4504 57.0634 39.5787 57.4229 39.5088 57.7726C39.439 58.1221 39.1819 58.4087 38.8358 58.522C38.3095 58.6936 37.7392 58.4209 37.5567 57.9089C37.3741 57.397 37.6471 56.8371 38.1691 56.6527Z" fill="white"/>
<path d="M34.3559 56.6532C34.8828 56.4669 35.4646 56.7332 35.6546 57.2478C35.8447 57.7625 35.571 58.3299 35.0435 58.5148C34.5173 58.6991 33.9375 58.4327 33.7479 57.9191C33.5582 57.4056 33.8303 56.8392 34.3559 56.6532Z" fill="white"/>
<path d="M68.927 19.5516C69.4644 19.429 70.0035 19.7485 70.1397 20.2703C70.2758 20.7922 69.9597 21.3246 69.4283 21.4682C69.0744 21.5638 68.6956 21.4652 68.4376 21.2106C68.1795 20.956 68.0825 20.5851 68.1843 20.2409C68.2855 19.8967 68.5701 19.633 68.927 19.5516Z" fill="white"/>
<path d="M34.5431 26.9497C35.0829 26.8667 35.5928 27.2164 35.6958 27.7402C35.7988 28.2641 35.4578 28.7733 34.925 28.8914C34.5641 28.9714 34.1873 28.8529 33.942 28.5823C33.6967 28.3117 33.6221 27.9322 33.7472 27.5922C33.8725 27.2521 34.1776 27.0058 34.5431 26.9497Z" fill="white"/>
<path d="M41.982 56.6497C42.3275 56.5312 42.7116 56.6039 42.9867 56.8399C43.2617 57.0759 43.3849 57.4384 43.3088 57.7884C43.2328 58.1379 42.9693 58.4205 42.6197 58.5268C42.0924 58.6874 41.5304 58.406 41.3564 57.8941C41.1826 57.3821 41.4608 56.8286 41.982 56.6497Z" fill="white"/>
<path d="M68.915 49.1924C69.2754 49.1401 69.6364 49.2808 69.8613 49.5609C70.0862 49.841 70.1389 50.2173 70.0004 50.5463C69.8619 50.8754 69.5535 51.1064 69.1919 51.1514C68.641 51.2199 68.1361 50.8427 68.0604 50.3057C67.9846 49.7688 68.3658 49.2722 68.915 49.1924Z" fill="white"/>
<path d="M61.2849 49.1951C61.8253 49.1076 62.339 49.4553 62.4443 49.9801C62.5496 50.5049 62.2088 51.0165 61.6743 51.1349C61.3145 51.2146 60.9393 51.097 60.6937 50.8279C60.4487 50.5588 60.3723 50.1808 60.4954 49.8412C60.6185 49.5016 60.9209 49.2541 61.2849 49.1951Z" fill="white"/>
<path d="M65.1013 49.1958C65.6446 49.1123 66.1565 49.4669 66.2553 49.9947C66.3542 50.5225 66.0038 51.0309 65.4658 51.1404C65.1054 51.2137 64.7332 51.0906 64.4929 50.819C64.252 50.5472 64.1816 50.1697 64.3076 49.8325C64.4343 49.4953 64.7379 49.2516 65.1013 49.1958Z" fill="white"/>
<path d="M65.0331 19.5505C65.571 19.4304 66.1084 19.7528 66.2416 20.2756C66.3747 20.7983 66.0545 21.3289 65.5219 21.4687C65.168 21.5616 64.7904 21.4607 64.5342 21.2048C64.2785 20.949 64.1838 20.5782 64.2874 20.2351C64.3909 19.892 64.6762 19.6302 65.0331 19.5505Z" fill="white"/>
<path d="M45.876 56.653C46.227 56.531 46.6183 56.607 46.8947 56.8509C47.1711 57.0948 47.2879 57.4672 47.1989 57.8204C47.1097 58.1735 46.8292 58.4508 46.4683 58.5415C45.944 58.6732 45.4063 58.3792 45.2477 57.8736C45.0892 57.3682 45.366 56.8304 45.876 56.653Z" fill="white"/>
<path d="M49.6849 56.6545C50.2099 56.4698 50.789 56.7347 50.9797 57.2468C51.1702 57.7588 50.9003 58.3251 50.3762 58.5123C49.8503 58.7 49.268 58.4354 49.0768 57.9218C48.8855 57.4078 49.158 56.84 49.6849 56.6545Z" fill="white"/>
<path d="M46.0854 26.9477C46.639 26.8778 47.1461 27.2585 47.219 27.7987C47.2919 28.339 46.903 28.8349 46.3498 28.9072C45.7949 28.9797 45.285 28.5987 45.2119 28.0568C45.1388 27.5148 45.5302 27.0179 46.0854 26.9477Z" fill="white"/>
<path d="M42.2898 26.9466C42.8384 26.8823 43.3384 27.2595 43.4129 27.794C43.4876 28.3285 43.1093 28.8225 42.5631 28.904C42.2019 28.9578 41.839 28.8174 41.6137 28.5366C41.3884 28.2557 41.3357 27.8781 41.4758 27.5486C41.6159 27.2192 41.927 26.989 42.2898 26.9466Z" fill="white"/>
<path d="M49.915 26.9456C50.4587 26.8863 50.9524 27.2597 51.0292 27.7886C51.1061 28.3174 50.7384 28.8101 50.1992 28.9008C49.8359 28.9619 49.4674 28.8253 49.2371 28.5442C49.007 28.2631 48.9516 27.882 49.0926 27.5495C49.2336 27.217 49.5486 26.9856 49.915 26.9456Z" fill="white"/>
<path d="M72.7335 49.1954C73.2703 49.1213 73.7716 49.4735 73.8698 49.994C73.9687 50.5146 73.629 51.0185 73.1005 51.1364C72.7383 51.2173 72.3595 51.0978 72.1145 50.8251C71.8695 50.5524 71.7973 50.1704 71.9263 49.8302C72.0553 49.4899 72.3654 49.2462 72.7335 49.1954Z" fill="white"/>
<path d="M53.4899 56.6543C54.0186 56.4686 54.601 56.7391 54.7871 57.2567C54.9731 57.7742 54.6916 58.3405 54.16 58.5185C53.6342 58.6941 53.0617 58.4226 52.8777 57.9106C52.6936 57.3989 52.967 56.8379 53.4899 56.6543Z" fill="white"/>
<path d="M57.4044 19.5557C57.9365 19.429 58.475 19.7383 58.6194 20.2537C58.7644 20.769 58.4632 21.3034 57.9394 21.4594C57.5873 21.5644 57.2044 21.4742 56.9403 21.224C56.6759 20.9738 56.5717 20.603 56.6682 20.2562C56.7647 19.9093 57.047 19.6409 57.4044 19.5557Z" fill="white"/>
<path d="M38.4681 26.9481C39.0025 26.8791 39.4983 27.2317 39.595 27.7494C39.6917 28.2671 39.3552 28.7678 38.8303 28.8873C38.4671 28.97 38.0868 28.8508 37.8409 28.5772C37.595 28.3035 37.5233 27.9199 37.6545 27.5791C37.7857 27.2383 38.0985 26.9958 38.4681 26.9481Z" fill="white"/>
<path d="M38.3458 30.7712C38.8347 30.6345 39.3442 30.9114 39.483 31.389C39.6217 31.8665 39.3368 32.3633 38.8472 32.4975C38.3595 32.6311 37.853 32.3542 37.7148 31.8784C37.5766 31.4026 37.8588 30.9074 38.3458 30.7712Z" fill="white"/>
<path d="M72.5633 45.62C72.8752 45.5097 73.2244 45.5723 73.4759 45.7838C73.7275 45.9952 73.8423 46.3227 73.7772 46.6404C73.7115 46.9581 73.4753 47.2166 73.1599 47.3167C72.6829 47.4679 72.1698 47.2177 72.007 46.7547C71.8443 46.2916 72.0917 45.7866 72.5633 45.62Z" fill="white"/>
<path d="M61.2423 15.8465C61.5654 15.7717 61.9045 15.873 62.13 16.1115C62.3549 16.35 62.4301 16.6886 62.3277 16.9969C62.2247 17.3052 61.959 17.5352 61.6335 17.5985C61.1422 17.694 60.6635 17.3877 60.5563 16.91C60.4498 16.4323 60.7552 15.9592 61.2423 15.8465Z" fill="white"/>
<path d="M68.7508 45.6226C69.0603 45.5102 69.4077 45.5688 69.6604 45.7761C69.9137 45.9833 70.0333 46.3073 69.9735 46.6244C69.9137 46.9416 69.6847 47.203 69.3728 47.3092C68.8975 47.4708 68.3773 47.2287 68.2069 46.7664C68.0364 46.3041 68.2785 45.7939 68.7508 45.6226Z" fill="white"/>
<path d="M42.1476 30.7748C42.6355 30.6349 43.1469 30.9091 43.2879 31.3862C43.4288 31.8632 43.1455 32.3611 42.6561 32.4964C42.1702 32.6307 41.6644 32.3564 41.5245 31.8826C41.3845 31.4089 41.663 30.9138 42.1476 30.7748Z" fill="white"/>
<path d="M64.9423 45.621C65.2559 45.5089 65.6075 45.5722 65.859 45.7861C66.1111 46.0001 66.2242 46.3309 66.1543 46.6498C66.0845 46.9686 65.8424 47.2251 65.5222 47.3194C65.047 47.4594 64.544 47.205 64.3871 46.7453C64.2303 46.2857 64.4759 45.7874 64.9423 45.621Z" fill="white"/>
<path d="M49.7561 60.5212C50.0737 60.427 50.4187 60.5073 50.6581 60.732C50.8976 60.9562 50.9942 61.2896 50.9107 61.6033C50.8271 61.9165 50.5765 62.162 50.2555 62.2441C49.7721 62.3677 49.2764 62.091 49.1404 61.6218C49.0043 61.1521 49.2781 60.6627 49.7561 60.5212Z" fill="white"/>
<path d="M45.9693 30.7721C46.4568 30.6379 46.9635 30.9149 47.101 31.3909C47.2385 31.8668 46.9549 32.3614 46.4674 32.4957C45.9798 32.6301 45.4731 32.3531 45.3355 31.8771C45.1979 31.4011 45.4817 30.9064 45.9693 30.7721Z" fill="white"/>
<path d="M34.4458 30.7732C34.9336 30.6367 35.4421 30.9128 35.5807 31.3894C35.7192 31.8659 35.435 32.3617 34.9466 32.4957C34.4599 32.6292 33.9544 32.353 33.8163 31.8782C33.6783 31.4035 33.9599 30.9092 34.4458 30.7732Z" fill="white"/>
<path d="M45.9529 60.5209C46.4406 60.377 46.9549 60.6492 47.0979 61.1264C47.241 61.6037 46.9579 62.1034 46.4677 62.2392C45.9835 62.3727 45.4792 62.1006 45.3379 61.6291C45.1966 61.1576 45.4711 60.663 45.9529 60.5209Z" fill="white"/>
<path d="M76.4542 45.624C76.765 45.5118 77.1135 45.5718 77.3657 45.7811C77.6184 45.9904 77.7355 46.3163 77.6728 46.6337C77.6095 46.9511 77.3763 47.2106 77.0615 47.3126C76.5868 47.4667 76.0731 47.2206 75.9074 46.7598C75.7417 46.299 75.9855 45.7935 76.4542 45.624Z" fill="white"/>
<path d="M30.6358 30.7735C31.1238 30.6363 31.633 30.9125 31.7714 31.3895C31.9097 31.8665 31.6245 32.3624 31.1353 32.4954C30.6492 32.6275 30.1451 32.3512 30.0076 31.8771C29.8701 31.4031 30.1509 30.9098 30.6358 30.7735Z" fill="white"/>
<path d="M80.2703 45.6211C80.5834 45.5113 80.9326 45.5756 81.1835 45.7893C81.4339 46.0029 81.5457 46.3323 81.4765 46.6498C81.4072 46.9673 81.1664 47.2232 80.8486 47.3182C80.3727 47.4604 79.8679 47.206 79.7111 46.7452C79.5542 46.2844 79.8022 45.7854 80.2703 45.6211Z" fill="white"/>
<path d="M42.0587 60.5194C42.5468 60.3784 43.0588 60.6534 43.1987 61.1312C43.3385 61.6085 43.0526 62.1059 42.562 62.2383C42.0776 62.3688 41.5759 62.0938 41.4378 61.6223C41.2997 61.1503 41.5768 60.6586 42.0587 60.5194Z" fill="white"/>
<path d="M65.0298 15.8527C65.3541 15.7708 65.6991 15.8685 65.9276 16.1076C66.1566 16.3467 66.2335 16.6888 66.1276 16.9995C66.0222 17.3101 65.7512 17.5394 65.421 17.5973C64.9368 17.6824 64.4705 17.3783 64.3651 16.909C64.2598 16.4397 64.5533 15.9731 65.0298 15.8527Z" fill="white"/>
<path d="M68.9318 15.8535C69.2556 15.7736 69.5976 15.8719 69.8249 16.11C70.0521 16.3481 70.1285 16.6883 70.0243 16.9975C69.9202 17.3067 69.6515 17.5359 69.3236 17.5956C68.8389 17.6839 68.3696 17.3803 68.2637 16.9098C68.1577 16.4393 68.4536 15.9718 68.9318 15.8535Z" fill="white"/>
<path d="M38.2474 60.5245C38.7309 60.3824 39.2412 60.6493 39.3867 61.1219C39.5323 61.594 39.2578 62.092 38.774 62.2336C38.2909 62.3746 37.7819 62.107 37.6367 61.6356C37.4914 61.1641 37.7647 60.6672 38.2474 60.5245Z" fill="white"/>
<path d="M72.7416 15.8549C73.0606 15.7767 73.3986 15.8727 73.6252 16.1058C73.8519 16.3389 73.9318 16.6731 73.8353 16.9803C73.7389 17.2876 73.4802 17.5201 73.1589 17.5889C72.6718 17.6932 72.1889 17.3964 72.0752 16.9225C71.961 16.4486 72.2575 15.9732 72.7416 15.8549Z" fill="white"/>
<path d="M68.9965 12.2234C69.432 12.1366 69.8587 12.4039 69.9599 12.8265C70.0611 13.249 69.799 13.6732 69.3693 13.7835C69.0805 13.8576 68.7727 13.7726 68.5668 13.5616C68.3608 13.3507 68.288 13.047 68.3774 12.7688C68.4668 12.4906 68.7041 12.2817 68.9965 12.2234Z" fill="white"/>
<path d="M80.3912 41.976C80.6806 41.9071 80.9848 41.9966 81.1872 42.2098C81.389 42.423 81.4571 42.7264 81.3648 43.0025C81.2719 43.2786 81.0333 43.484 80.7416 43.5392C80.3042 43.6218 79.8799 43.3489 79.7846 42.9244C79.6899 42.4999 79.9586 42.0789 80.3912 41.976Z" fill="white"/>
<path d="M76.5852 41.9764C77.0184 41.8725 77.4569 42.1261 77.5723 42.5468C77.6877 42.9675 77.4368 43.4009 77.0083 43.5221C76.7237 43.6027 76.4159 43.5265 76.2046 43.3229C75.9933 43.1193 75.9117 42.8201 75.9904 42.5407C76.0691 42.2614 76.2969 42.0455 76.5852 41.9764Z" fill="white"/>
<path d="M65.0948 12.2238C65.5298 12.1358 65.9577 12.4028 66.0583 12.8255C66.1595 13.2483 65.8961 13.6723 65.4659 13.781C65.1777 13.8536 64.8723 13.7682 64.6675 13.5579C64.4622 13.3475 64.39 13.0452 64.4787 12.7682C64.5675 12.4911 64.8036 12.2827 65.0948 12.2238Z" fill="white"/>
<path d="M34.4477 34.5793C34.8705 34.447 35.3243 34.668 35.4705 35.0772C35.6166 35.4865 35.402 35.935 34.9866 36.0881C34.7083 36.1906 34.395 36.1377 34.1682 35.9499C33.9413 35.7622 33.8366 35.4691 33.8947 35.1843C33.9527 34.8996 34.1644 34.668 34.4477 34.5793Z" fill="white"/>
<path d="M30.6468 34.5782C31.0771 34.4457 31.5362 34.6783 31.673 35.0981C31.8098 35.518 31.5727 35.9667 31.143 36.1013C30.7117 36.2363 30.2502 36.0038 30.1129 35.5825C29.9757 35.1612 30.2149 34.7112 30.6468 34.5782Z" fill="white"/>
<path d="M72.6925 41.9767C72.9795 41.9101 73.282 42 73.482 42.212C73.6826 42.4239 73.7507 42.7249 73.6601 42.9994C73.569 43.274 73.334 43.4794 73.044 43.5369C72.6061 43.6238 72.1782 43.3518 72.0817 42.9258C71.9859 42.4998 72.2575 42.0773 72.6925 41.9767Z" fill="white"/>
<path d="M42.1621 34.578C42.5872 34.4474 43.0412 34.6733 43.1828 35.0858C43.3243 35.4984 43.1015 35.9456 42.6816 36.0914C42.4029 36.1882 42.0925 36.1306 41.8698 35.9407C41.647 35.7508 41.5466 35.4584 41.6072 35.1758C41.6678 34.8932 41.88 34.6647 42.1621 34.578Z" fill="white"/>
<path d="M42.055 64.3295C42.4815 64.1885 42.9448 64.4104 43.091 64.8264C43.2372 65.2424 43.0114 65.6954 42.5859 65.8393C42.1583 65.9843 41.6915 65.7624 41.5445 65.3447C41.3976 64.9269 41.6264 64.4717 42.055 64.3295Z" fill="white"/>
<path d="M68.8807 41.9765C69.3204 41.8755 69.7608 42.1419 69.8637 42.5713C69.9667 43.0007 69.6933 43.4304 69.2536 43.5306C68.8138 43.6307 68.3747 43.3643 68.2717 42.9354C68.1688 42.5065 68.4416 42.0773 68.8807 41.9765Z" fill="white"/>
<path d="M45.9509 64.3304C46.381 64.1865 46.8488 64.413 46.9921 64.8342C47.1353 65.2554 46.899 65.7096 46.4661 65.8453C46.0392 65.9794 45.5816 65.7523 45.4403 65.3369C45.299 64.9215 45.5268 64.4725 45.9509 64.3304Z" fill="white"/>
<path d="M38.3476 34.5796C38.7706 34.4466 39.225 34.6681 39.3702 35.0781C39.5153 35.4883 39.2981 35.9364 38.8812 36.0868C38.6036 36.1868 38.2922 36.1325 38.0673 35.9448C37.8424 35.757 37.739 35.4652 37.7972 35.1819C37.8554 34.8986 38.0659 34.6682 38.3476 34.5796Z" fill="white"/>
</g>
<defs>
<clipPath id="clip0_2946_3845">
<rect width="112" height="78" fill="white"/>
</clipPath>
</defs>
</svg>
